#!OML:ASF H:\Male1\Project 1\Capture day 1\Session 1\Male1.ASF
:FULLY-SPECIFIED
:DEGREES
741
root 21.8806 15.2249 6.71422 -177.3 -42.2584 171.74
lowerback 5.63398 0.96228 -7.57896
upperback 4.87953 0.692086 -2.24492
thorax 1.8315 0.0382986 1.88755
lowerneck -6.53746 8.58784 11.0752
upperneck 14.4478 11.1224 -6.85759
head 6.47978 5.43951 -3.06342
rclavicle 4.48259e-014 3.93594e-014
rhumerus -38.3879 -1.15409 -88.7874
rradius 34.3376
rwrist -19.3733
rhand -15.205 -0.382674
rfingers 7.12502
rthumb 10.967 -30.0762
lclavicle 4.48259e-014 3.93594e-014
lhumerus -14.1757 -21.1048 85.5323
lradius 47.3786
lwrist 8.39428
lhand -22.8572 13.7416
lfingers 7.12502
lthumb 3.58105 43.6912
rfemur -27.887 23.8998 10.4419
rtibia 28.2164
rfoot -34.8419 -32.0439
rtoes 1.37409
lfemur 25.4966 -7.82578 -31.3263
ltibia 1.59028e-014
lfoot -11.664 10.9988
ltoes -15.6891
742
root 21.7271 15.2094 6.47871 -177.181 -42.4907 171.902
lowerback 5.25608 0.813203 -7.41178
upperback 4.79016 0.551652 -2.14159
thorax 1.96111 -0.0223076 1.9102
lowerneck -6.67177 8.70946 11.1348
upperneck 14.7038 11.2835 -6.91704
head 6.60701 5.51067 -3.06637
rclavicle -6.95746e-015 2.84262e-014
rhumerus -38.2795 -1.80019 -88.4688
rradius 33.6747
rwrist -18.534
rhand -15.0353 -0.176667
rfingers 7.12502
rthumb 11.1307 -29.8615
lclavicle -6.95746e-015 2.84262e-014
lhumerus -14.7573 -20.6979 86.0485
lradius 47.8367
lwrist 8.02219
lhand -22.7443 13.5969
lfingers 7.12502
lthumb 3.68999 43.5447
rfemur -27.5935 22.6911 11.0288
rtibia 28.4889
rfoot -32.0538 -30.8686
rtoes -1.68011
lfemur 26.3118 -7.92368 -30.8877
ltibia 3.18055e-015
lfoot -10.8255 10.2511
ltoes -15.1197
743
root 21.5662 15.1974 6.23958 -177.019 -42.6323 171.879
lowerback 4.95934 0.654627 -7.30536
upperback 4.65281 0.381905 -2.124
thorax 1.99842 -0.0952805 1.87722
lowerneck -6.55733 8.79811 11.1059
upperneck 14.8467 11.4132 -6.88486
head 6.64179 5.57312 -3.04149
rclavicle 1.31098e-013 -5.22804e-014
rhumerus -38.3484 -2.2361 -88.2726
rradius 33.144
rwrist -17.9303
rhand -14.8837 -0.101837
rfingers 7.12502
rthumb 11.2769 -29.7787
lclavicle 1.31098e-013 -5.22804e-014
lhumerus -15.6803 -19.8138 86.5869
lradius 48.126
lwrist 7.3007
lhand -22.9424 12.1785
lfingers 7.12502
lthumb 3.49868 42.1296
rfemur -26.938 19.9034 12.1455
rtibia 29.2678
rfoot -28.0773 -28.4782
rtoes -4.40381
lfemur 27.2106 -7.92485 -30.6034
ltibia 1.27222e-014
lfoot -9.79036 9.40846
ltoes -16.6486
744
root 21.3996 15.1897 5.99517 -176.9 -42.5924 171.596
lowerback 4.83793 0.507765 -7.41828
upperback 4.61244 0.196497 -2.10804
thorax 2.04099 -0.189731 1.96268
lowerneck -6.54117 9.03019 11.1521
upperneck 14.9832 11.7634 -7.0948
head 6.73139 5.72707 -3.077
rclavicle -3.9906e-014 4.73108e-014
rhumerus -38.4105 -1.9761 -88.2214
rradius 32.8173
rwrist -17.859
rhand -14.849 -0.1494
rfingers 7.12502
rthumb 11.3103 -29.8244
lclavicle -3.9906e-014 4.73108e-014
lhumerus -16.5984 -18.5427 87.1153
lradius 48.1543
lwrist 6.87108
lhand -22.3475 12.8212
lfingers 7.12502
lthumb 4.07316 42.762
rfemur -26.2676 17.6018 12.961
rtibia 30.202
rfoot -24.6704 -26.3876
rtoes -8.57592
lfemur 28.3356 -7.71225 -30.5718
ltibia -4.77083e-014
lfoot -8.35363 8.64749
ltoes -19.2947
745
root 21.2374 15.1944 5.74819 -177.294 -42.4034 171.98
lowerback 4.7106 0.385757 -7.0902
upperback 4.70264 0.0658113 -1.9047
thorax 2.21559 -0.253542 1.99396
lowerneck -6.59815 9.32294 11.1311
upperneck 14.9445 12.225 -7.45925
head 6.79428 5.9213 -3.13678
rclavicle -4.03284e-014 -6.75868e-015
rhumerus -38.0833 -1.78253 -88.0272
rradius 32.2723
rwrist -17.6809
rhand -14.9374 -0.162448
rfingers 7.12502
rthumb 11.2252 -29.8421
lclavicle -4.03284e-014 -6.75868e-015
lhumerus -17.3592 -17.2125 87.6816
lradius 47.7963
lwrist 6.66304
lhand -22.7864 12.2611
lfingers 7.12502
lthumb 3.64933 42.2096
rfemur -25.6814 16.3019 14.0636
rtibia 31.1845
rfoot -22.2542 -24.3453
rtoes -9.20831
lfemur 29.4852 -7.338 -30.0179
ltibia 6.36111e-015
lfoot -6.34855 8.10319
ltoes -21.3832
746
root 21.078 15.2074 5.49694 -177.905 -42.1614 173.084
lowerback 4.36996 0.249764 -6.19884
upperback 4.61951 -0.040732 -1.61039
thorax 2.3217 -0.275116 1.8052
lowerneck -6.32662 9.51159 11.1833
upperneck 14.8807 12.5587 -7.83619
head 6.78725 6.06233 -3.24097
rclavicle -7.97623e-015 3.65764e-014
rhumerus -37.881 -1.74868 -87.8387
rradius 31.6817
rwrist -17.46
rhand -14.9729 -0.117277
rfingers 7.12502
rthumb 11.1909 -29.7988
lclavicle -7.97623e-015 3.65764e-014
lhumerus -18.4393 -15.9085 88.1998
lradius 47.1419
lwrist 6.15875
lhand -23.2121 11.914
lfingers 7.12502
lthumb 3.23829 41.8692
rfemur -25.2815 15.4281 15.5707
rtibia 32.0514
rfoot -20.3669 -22.1899
rtoes -9.44326
lfemur 30.3306 -6.942 -28.8948
ltibia -3.49861e-014
lfoot -3.52256 7.79505
ltoes -24.1138
747
root 20.9088 15.2113 5.23851 -178.431 -41.702 173.952
lowerback 3.90374 0.192652 -5.32248
upperback 4.53183 -0.0457913 -1.52132
thorax 2.48518 -0.247272 1.40855
lowerneck -6.01147 9.69493 11.4331
upperneck 14.9922 12.8394 -8.04686
head 6.82823 6.19857 -3.32811
rclavicle 6.7065e-014 -2.20651e-014
rhumerus -38.0395 -0.956605 -88.1952
rradius 31.6017
rwrist -18.1956
rhand -15.1918 -0.211165
rfingers 7.12502
rthumb 10.9798 -29.904
lclavicle 6.7065e-014 -2.20651e-014
lhumerus -19.7062 -14.7032 88.4891
lradius 46.1479
lwrist 5.48334
lhand -23.2995 11.9368
lfingers 7.12502
lthumb 3.15391 41.8932
rfemur -24.6127 14.3386 16.9746
rtibia 32.7554
rfoot -18.9437 -20.3585
rtoes -8.69939
lfemur 26.022 -6.25424 -27.9819
ltibia 9.84047
lfoot -4.86455 6.9707
ltoes -24.6241
748
root 20.745 15.2142 4.97803 -178.459 -41.4423 174.207
lowerback 3.43456 0.091711 -5.01089
upperback 4.38296 -0.130828 -1.51993
thorax 2.59654 -0.273106 1.2371
lowerneck -5.73432 9.90946 11.6187
upperneck 15.19 13.1399 -8.06941
head 6.88997 6.35217 -3.34044
rclavicle 4.71368e-014 3.77691e-015
rhumerus -37.8264 -2.22784 -87.6442
rradius 30.7263
rwrist -16.9326
rhand -15.1013 0.0421272
rfingers 7.12502
rthumb 11.067 -29.6461
lclavicle 4.71368e-014 3.77691e-015
lhumerus -20.979 -13.4199 88.7643
lradius 44.7353
lwrist 4.71506
lhand -23.0487 11.9908
lfingers 7.12502
lthumb 3.39603 41.9435
rfemur -23.8015 12.9951 17.8641
rtibia 33.1003
rfoot -18.0653 -19.7982
rtoes -10.4619
lfemur 22.3547 -5.83272 -27.3437
ltibia 18.0626
lfoot -4.85497 6.03588
ltoes -22.0092
749
root 20.5949 15.2272 4.71823 -178.438 -41.5498 174.085
lowerback 3.38364 -0.0523569 -5.16094
upperback 4.25648 -0.318829 -1.49435
thorax 2.50691 -0.364168 1.34997
lowerneck -5.42433 10.066 11.6082
upperneck 15.3016 13.3732 -8.02451
head 6.89292 6.46964 -3.31233
rclavicle -3.82412e-014 -8.34896e-015
rhumerus -38.0197 -2.22445 -87.5103
rradius 30.7846
rwrist -17.1353
rhand -15.1696 -0.289977
rfingers 7.12502
rthumb 11.0012 -29.9817
lclavicle -3.82412e-014 -8.34896e-015
lhumerus -22.1373 -12.1058 89.0134
lradius 43.1148
lwrist 3.78392
lhand -22.2619 12.3548
lfingers 7.12502
lthumb 4.15586 42.294
rfemur -22.59 11.8565 18.4277
rtibia 33.2876
rfoot -17.8354 -19.807
rtoes -12.681
lfemur 19.3811 -4.95781 -26.5502
ltibia 24.9611
lfoot -3.38651 4.56215
ltoes -22.5114
750
root 20.4371 15.2847 4.45167 -178.744 -41.598 174.437
lowerback 3.32107 -0.113097 -4.86091
upperback 4.17444 -0.385396 -1.42049
thorax 2.45788 -0.383617 1.25992
lowerneck -5.26144 10.1463 11.4973
upperneck 15.4567 13.4829 -7.86434
head 6.90708 6.52658 -3.23906
rclavicle 5.31749e-014 1.35174e-014
rhumerus -38.2359 -2.33443 -87.3542
rradius 30.9764
rwrist -17.448
rhand -14.9916 -0.310061
rfingers 7.12502
rthumb 11.1729 -29.9926
lclavicle 5.31749e-014 1.35174e-014
lhumerus -23.1548 -10.9419 89.1772
lradius 41.3702
lwrist 2.73133
lhand -21.4961 12.5478
lfingers 7.12502
lthumb 4.89534 42.4713
rfemur -21.0352 11.0256 19.3206
rtibia 33.1242
rfoot -18.0275 -19.33
rtoes -12.8278
lfemur 16.2999 -4.6713 -25.4982
ltibia 31.5774
lfoot -2.13294 3.57538
ltoes -14.7612
751
root 20.2958 15.2977 4.19843 -179.637 -41.585 175.667
lowerback 3.34393 -0.0761634 -3.80525
upperback 4.12295 -0.312065 -1.24803
thorax 2.3776 -0.312926 0.848305
lowerneck -5.36957 10.189 11.5857
upperneck 15.7805 13.5083 -7.74488
head 7.03153 6.54336 -3.20208
rclavicle -5.1684e-014 -3.18055e-015
rhumerus -38.437 -2.75592 -87.1788
rradius 31.1676
rwrist -17.5887
rhand -14.8717 -0.150551
rfingers 7.12502
rthumb 11.2885 -29.8268
lclavicle -5.1684e-014 -3.18055e-015
lhumerus -24.0085 -9.92944 89.22
lradius 39.4269
lwrist 1.24149
lhand -20.4686 12.3859
lfingers 7.12502
lthumb 5.88736 42.2841
rfemur -19.5185 10.5587 20.9195
rtibia 32.7076
rfoot -18.2091 -18.982
rtoes -13.6972
lfemur 13.1812 -3.17515 -23.6129
ltibia 37.9968
lfoot 0.095812 1.99232
ltoes -28.1832
